<svg enable-background="new 0 0 256 256" height="512" viewBox="0 0 256 256" width="512" xmlns="http://www.w3.org/2000/svg"><path d="m235.333 207.333h-214.666c-8.284 0-15-6.716-15-15v-128.666c0-8.284 6.716-15 15-15h214.667c8.284 0 15 6.716 15 15v128.667c-.001 8.284-6.716 14.999-15.001 14.999z" fill="#ff4a73"/><path d="m35.67 207.33h-15c-8.29 0-15-6.71-15-15v-128.66c0-8.29 6.71-15 15-15h15c-8.29 0-15 6.71-15 15v128.66c0 8.29 6.71 15 15 15z" fill="#f973a3"/><path d="m250.33 63.67v128.66c0 8.29-6.71 15-15 15h-15c8.29 0 15-6.71 15-15v-128.66c0-8.29-6.71-15-15-15h15c8.29 0 15 6.71 15 15z" fill="#ea2a6a"/><path d="m78.347 79.055 12.856 26.048c.728 1.476 2.136 2.499 3.765 2.735l28.746 4.177c4.101.596 5.739 5.636 2.771 8.528l-20.801 20.276c-1.178 1.149-1.716 2.804-1.438 4.426l4.91 28.63c.701 4.085-3.587 7.199-7.255 5.271l-25.711-13.517c-1.457-.766-3.197-.766-4.653 0l-25.711 13.517c-3.668 1.928-7.955-1.186-7.255-5.271l4.91-28.63c.278-1.622-.26-3.277-1.438-4.426l-20.801-20.276c-2.968-2.893-1.33-7.933 2.771-8.528l28.746-4.177c1.629-.237 3.036-1.259 3.765-2.735l12.856-26.048c1.834-3.716 7.133-3.716 8.967 0z" fill="#f9d335"/><path d="m105.68 140.82c-1.17 1.15-1.71 2.8-1.43 4.43l4.91 28.63c.7 4.08-3.59 7.2-7.26 5.27l-7.68-4.04c.03-.4.01-.81-.06-1.23l-4.91-28.63c-.28-1.63.26-3.28 1.43-4.43l20.8-20.28c2.97-2.89 1.33-7.93-2.77-8.52l-28.74-4.18c-1.63-.24-3.04-1.26-3.77-2.74l-9.84-19.93 3.02-6.11c1.83-3.72 7.13-3.72 8.97 0l12.85 26.04c.73 1.48 2.14 2.5 3.77 2.74l28.74 4.18c4.1.59 5.74 5.63 2.77 8.52z" fill="#f2c300"/><path d="m81.36 85.17-9.84 19.93c-.72 1.48-2.13 2.5-3.76 2.74l-28.75 4.18c-4.1.59-5.74 5.63-2.77 8.52l20.8 20.28c1.18 1.15 1.72 2.8 1.44 4.43l-4.91 28.63c-.07.42-.09.83-.06 1.23l-7.68 4.04c-3.67 1.93-7.96-1.19-7.26-5.27l4.91-28.63c.28-1.63-.26-3.28-1.44-4.43l-20.8-20.28c-2.97-2.89-1.33-7.93 2.77-8.52l28.75-4.18c1.63-.24 3.04-1.26 3.76-2.74l12.86-26.04c1.83-3.72 7.13-3.72 8.97 0z" fill="#f9e27d"/><g fill="#5f266d"><path d="m235.333 44.667h-214.666c-10.477 0-19 8.523-19 19v128.666c0 10.477 8.523 19 19 19h214.666c10.477 0 19-8.523 19-19v-128.666c0-10.477-8.523-19-19-19zm11 147.666c0 6.065-4.935 11-11 11h-214.666c-6.065 0-11-4.935-11-11v-128.666c0-6.065 4.935-11 11-11h214.666c6.065 0 11 4.935 11 11z"/><path d="m124.289 108.058-28.747-4.178c-.325-.047-.606-.251-.752-.547l-12.856-26.049c-3.302-6.688-12.841-6.683-16.141 0l-12.855 26.049c-.146.295-.428.5-.754.548l-28.746 4.177c-7.378 1.072-10.326 10.149-4.987 15.351l20.802 20.277c.234.229.342.56.286.885l-4.91 28.63c-1.258 7.342 6.463 12.955 13.059 9.487l25.712-13.518c.29-.152.637-.153.931.001l25.711 13.516c3.054 1.608 6.687 1.346 9.478-.685 2.792-2.027 4.164-5.4 3.581-8.802l-4.91-28.631c-.056-.324.052-.655.287-.885l20.801-20.276c5.337-5.203 2.387-14.279-4.99-15.35zm-.597 9.622-20.8 20.275c-2.122 2.067-3.09 5.046-2.589 7.967l4.91 28.63c.141.824-.712 1.443-1.451 1.054l-25.71-13.516c-2.625-1.382-5.759-1.38-8.378-.001l-25.711 13.518c-.74.39-1.592-.231-1.451-1.055l4.91-28.629c.501-2.922-.467-5.9-2.588-7.967l-20.8-20.276c-.6-.584-.271-1.585.554-1.706l28.745-4.176c2.933-.426 5.466-2.267 6.778-4.924l12.855-26.049c.371-.751 1.422-.751 1.793 0l12.855 26.047c1.311 2.658 3.845 4.5 6.777 4.925l28.746 4.177c.826.12 1.155 1.122.555 1.706z"/><path d="m230.5 72.268h-88.5c-2.209 0-4 1.791-4 4s1.791 4 4 4h88.5c2.209 0 4-1.791 4-4s-1.791-4-4-4z"/><path d="m230.5 175.732h-88.5c-2.209 0-4 1.791-4 4s1.791 4 4 4h88.5c2.209 0 4-1.791 4-4s-1.791-4-4-4z"/><path d="m230.5 95.17h-64c-2.209 0-4 1.791-4 4s1.791 4 4 4h64c2.209 0 4-1.791 4-4s-1.791-4-4-4z"/><path d="m76.198 140.03-1.658 1.527c-1.625 1.497-1.729 4.027-.232 5.652 1.499 1.626 4.03 1.727 5.652.232l1.658-1.527c1.625-1.497 1.729-4.027.232-5.652s-4.028-1.729-5.652-.232z"/><path d="m96.79 121.059-9.561 8.809c-3.896 3.587 1.557 9.446 5.42 5.883l9.561-8.809c1.625-1.496 1.729-4.027.231-5.651-1.496-1.627-4.026-1.731-5.651-.232z"/></g></svg>